<?xml version="1.0" standalone="no"?>
<!DOCTYPE svg PUBLIC "-//W3C//DTD SVG 20010904//EN"
 "http://www.w3.org/TR/2001/REC-SVG-20010904/DTD/svg10.dtd">
<svg version="1.0" xmlns="http://www.w3.org/2000/svg"
 width="325.000000pt" height="325.000000pt" viewBox="0 0 325.000000 325.000000"
 preserveAspectRatio="xMidYMid meet">
<metadata>
Created by potrace 1.14, written by Peter Selinger 2001-2017
</metadata>
<g transform="translate(0.000000,325.000000) scale(0.100000,-0.100000)"
fill="#000000" stroke="none">
<path d="M1557 3004 c-1 -1 -28 -5 -59 -7 -32 -3 -62 -8 -67 -12 -5 -3 -12 -2
-14 3 -5 7 -30 7 -117 -4 -25 -3 -52 -5 -60 -6 -8 -1 -18 -6 -22 -12 -5 -7 -8
-7 -8 2 0 7 -5 10 -10 7 -6 -4 -7 -12 -3 -18 4 -8 1 -7 -9 1 -11 9 -18 10 -23
2 -3 -6 -11 -8 -16 -5 -5 4 -9 1 -9 -6 0 -7 -3 -9 -7 -6 -3 4 -14 0 -24 -9
-15 -13 -33 -20 -62 -23 -4 -1 -6 -5 -5 -10 2 -5 0 -8 -4 -7 -4 0 -13 -8 -21
-18 -8 -10 -19 -16 -25 -12 -6 4 -18 -8 -28 -29 -9 -19 -20 -32 -25 -29 -5 3
-9 0 -9 -5 0 -6 -16 -17 -35 -25 -19 -8 -38 -22 -41 -31 -3 -8 -12 -15 -20
-15 -8 0 -13 -3 -13 -7 3 -20 -2 -34 -11 -28 -5 3 -7 0 -4 -8 3 -8 -2 -22 -11
-31 -9 -9 -14 -16 -11 -16 4 0 -8 -27 -25 -60 -17 -33 -33 -60 -36 -60 -2 0
-1 5 3 12 4 7 3 8 -5 4 -7 -5 -11 -18 -9 -31 1 -12 -3 -29 -10 -38 -7 -8 -14
-26 -14 -39 -1 -13 -6 -29 -11 -35 -6 -8 -6 -13 0 -13 10 0 12 -88 2 -105 -9
-18 -1 -204 15 -330 7 -57 26 -170 32 -195 3 -14 7 -34 9 -45 2 -11 4 -20 5
-20 1 0 3 -7 5 -15 8 -38 15 -68 24 -102 9 -39 7 -42 -31 -39 -10 1 -29 -10
-43 -25 -21 -22 -25 -37 -25 -85 0 -47 6 -68 36 -121 19 -35 38 -72 41 -83 12
-37 85 -169 114 -207 17 -20 32 -47 35 -60 2 -13 7 -36 10 -53 3 -16 10 -35
17 -43 6 -8 12 -19 13 -26 1 -6 8 -24 15 -41 7 -16 11 -35 10 -42 -1 -6 4 -15
10 -19 8 -4 9 -3 5 4 -4 7 -3 12 2 12 5 0 14 -15 19 -32 5 -18 14 -32 20 -31
6 1 9 -6 6 -17 -3 -12 0 -20 6 -20 7 0 9 -4 6 -10 -3 -5 -1 -10 4 -10 6 0 11
-6 11 -14 0 -8 4 -16 10 -18 5 -1 11 -12 13 -23 2 -11 7 -27 10 -35 6 -17 25
-137 34 -215 9 -86 4 -110 -19 -87 -17 17 -33 15 -19 -2 9 -11 9 -16 0 -22 -7
-4 -9 -3 -6 3 13 21 -26 24 -40 3 -8 -12 -24 -30 -36 -42 -12 -11 -15 -17 -7
-13 11 6 10 3 -2 -12 -20 -22 -24 -38 -6 -27 7 4 8 3 4 -5 -4 -6 -12 -9 -17
-6 -5 4 -9 -1 -9 -9 0 -9 -5 -16 -11 -16 -5 0 -7 6 -3 12 4 8 3 10 -2 5 -5 -5
-9 -14 -9 -20 -1 -7 -7 -11 -14 -9 -7 1 -10 -1 -7 -6 5 -9 -28 -42 -44 -42 -5
0 -12 -4 -15 -10 -4 -6 370 -10 1045 -10 964 0 1050 1 1050 16 0 11 6 15 20
11 11 -3 18 -1 14 4 -3 5 -11 9 -19 9 -7 0 -15 7 -19 15 -6 17 21 48 35 40 5
-4 6 1 2 10 -5 13 -7 14 -14 3 -5 -8 -7 2 -5 26 2 21 10 42 17 47 9 5 9 9 2 9
-14 0 -14 70 1 89 8 11 8 15 -2 19 -10 3 -10 7 0 20 8 9 8 13 2 9 -7 -4 -15 0
-18 9 -3 8 -2 12 3 9 5 -3 12 -1 16 5 3 5 -1 10 -9 10 -9 0 -16 5 -16 11 0 5
4 8 9 4 5 -3 13 0 17 6 4 8 3 9 -4 5 -12 -7 -16 5 -12 33 1 9 -4 12 -15 7 -9
-3 -21 -6 -26 -6 -6 0 -7 -5 -4 -10 5 -8 11 -8 20 0 10 9 13 7 11 -6 -2 -10
-8 -20 -15 -22 -9 -3 -9 -7 -1 -17 9 -10 7 -20 -4 -38 -9 -13 -13 -26 -10 -30
3 -3 -4 -16 -17 -29 l-23 -23 17 27 c12 20 13 28 4 31 -9 4 -9 6 1 6 6 1 12 6
12 12 0 5 -5 7 -12 3 -7 -4 -8 -3 -4 4 4 7 2 12 -5 12 -7 0 -9 3 -6 6 4 4 13
1 22 -6 17 -14 21 0 4 17 -8 8 -8 13 0 17 6 4 11 13 11 19 -1 7 -9 2 -20 -11
-18 -22 -21 -23 -42 -8 -12 9 -18 16 -12 16 5 0 15 -5 22 -12 9 -9 12 -9 12
-1 0 16 -21 28 -42 25 -9 -2 -19 2 -23 8 -3 5 -11 10 -17 10 -7 0 1 -13 17
-30 16 -16 25 -30 21 -30 -5 0 -22 15 -38 32 -21 23 -28 27 -23 13 4 -11 10
-28 12 -37 3 -10 9 -15 14 -12 5 3 12 -2 15 -11 6 -14 8 -14 25 1 28 25 23 9
-6 -22 -18 -19 -24 -22 -19 -9 5 13 4 16 -4 11 -8 -5 -10 -1 -5 10 4 11 3 15
-5 11 -14 -10 -44 51 -37 77 6 19 5 19 -8 4 -12 -15 -14 -15 -25 3 -16 25 -4
49 13 26 10 -14 12 -14 22 3 10 15 9 17 -10 12 -12 -3 -19 -1 -14 3 4 5 28 10
53 10 28 1 40 -1 32 -6 -11 -7 -11 -9 0 -9 7 0 10 -5 6 -12 -4 -6 -3 -8 4 -4
5 3 13 0 15 -6 4 -9 6 -9 6 1 1 11 5 10 16 -5 15 -19 15 -19 9 1 -4 16 -2 15
9 -4 10 -18 16 -20 22 -11 5 8 2 18 -8 25 -9 7 -13 16 -9 21 4 4 -1 2 -10 -5
-10 -7 -19 -11 -19 -7 -1 3 -2 9 -3 14 -3 19 -18 31 -31 25 -11 -4 -14 0 -9
13 5 16 4 16 -5 4 -10 -14 -16 -7 -12 14 1 5 -5 4 -13 -3 -12 -10 -16 -9 -25
6 -6 11 -11 13 -11 5 0 -7 -4 -10 -10 -7 -5 3 -10 2 -10 -4 0 -5 -9 -9 -20 -8
-19 1 -24 10 -21 30 1 5 -7 6 -18 2 -13 -4 -23 0 -31 12 -10 16 -10 16 -5 -4
5 -18 2 -21 -15 -18 -13 3 -18 0 -14 -7 5 -8 1 -9 -12 -5 -19 7 -19 7 0 -8 10
-8 23 -12 27 -9 5 3 9 1 9 -5 0 -20 -17 -20 -46 0 -28 19 -72 41 -85 43 -4 1
-25 15 -47 33 -32 26 -42 43 -55 93 -16 64 -16 185 -1 290 4 30 8 72 8 93 0
20 4 37 9 37 4 0 6 4 2 9 -3 5 -1 12 4 15 5 4 15 23 21 44 17 52 42 105 58
121 7 7 11 20 8 27 -3 8 -2 14 2 14 7 0 23 41 47 125 17 59 19 158 5 186 -6
11 -24 25 -40 32 l-30 12 -4 240 c-4 261 -12 366 -29 377 -6 4 -8 10 -4 14 4
4 2 13 -4 21 -6 7 -8 13 -3 13 5 0 4 4 -2 8 -5 4 -21 34 -34 67 -23 59 -55
110 -68 110 -4 0 -6 5 -4 12 2 8 -3 10 -13 7 -9 -4 -15 -3 -14 2 1 5 0 12 -1
17 -1 4 -3 13 -4 20 -1 6 -10 10 -21 9 -16 -3 -17 -1 -6 11 10 13 9 15 -7 10
-11 -2 -23 1 -27 8 -5 8 -4 10 3 5 8 -5 10 -2 6 8 -3 9 -10 13 -15 10 -5 -3
-9 0 -9 6 0 7 -13 25 -30 40 -16 15 -30 34 -30 41 0 7 -3 10 -6 6 -3 -3 -17 7
-30 22 -29 35 -32 53 -3 20 l20 -24 -17 28 c-9 15 -25 27 -35 27 -11 0 -16 5
-13 13 3 8 -3 20 -12 28 -16 12 -17 12 -10 -1 4 -8 -2 -4 -14 10 -19 21 -21
22 -16 5 6 -18 4 -18 -13 3 -11 12 -29 22 -41 22 -12 0 -30 5 -41 11 -11 6
-28 12 -37 15 -63 15 -150 36 -167 39 -40 9 -60 14 -60 15 0 5 -133 28 -138
24z m1147 -2479 c3 -9 2 -13 -4 -10 -21 13 -31 -7 -14 -26 16 -17 15 -20 -2
-18 -10 1 -43 -54 -38 -63 3 -4 0 -8 -6 -8 -7 0 -9 8 -5 21 6 18 5 19 -13 10
-12 -6 -24 -11 -29 -11 -4 1 4 8 20 16 24 13 26 18 16 36 -6 11 -7 18 -1 14
13 -8 36 20 27 34 -3 6 -11 7 -17 4 -6 -4 -8 -3 -5 2 10 17 64 15 71 -1z m100
-25 c4 0 4 6 0 13 -5 8 -2 8 9 -2 23 -18 22 -18 -15 -16 -40 2 -83 -26 -85
-54 -1 -11 4 -20 10 -18 7 1 12 -9 12 -22 0 -13 6 -26 13 -28 8 -3 10 2 6 14
-5 15 -4 15 5 3 17 -24 -6 -36 -29 -15 -11 10 -22 16 -25 13 -3 -3 1 -11 10
-18 17 -14 20 -30 5 -30 -5 0 -9 6 -7 13 1 6 -3 11 -9 10 -19 -3 -12 30 8 35
10 2 18 9 18 14 0 5 -4 7 -9 4 -5 -3 -14 1 -21 9 -7 8 -17 12 -23 8 -6 -3 -7
-1 -3 5 4 6 12 9 20 6 18 -7 17 27 -2 49 -14 16 -14 17 0 12 9 -4 19 -1 23 5
5 8 12 5 22 -7 8 -10 12 -13 9 -6 -10 19 27 35 40 18 6 -8 14 -15 18 -15z
m-200 -5 c3 -8 1 -15 -4 -15 -6 0 -10 7 -10 15 0 8 2 15 4 15 2 0 6 -7 10 -15z
m262 -21 c1 -9 0 -13 -4 -10 -3 4 -7 14 -8 22 -1 9 0 13 4 10 3 -4 7 -14 8
-22z m-176 -64 c0 -5 -7 -7 -15 -4 -8 4 -15 8 -15 10 0 2 7 4 15 4 8 0 15 -4
15 -10z m-25 -20 c-3 -5 -1 -10 4 -10 6 0 11 -5 11 -11 0 -8 -5 -8 -15 1 -13
11 -12 30 1 30 3 0 2 -4 -1 -10z m96 -73 c-10 -9 -11 -8 -5 6 3 10 9 15 12 12
3 -3 0 -11 -7 -18z m129 3 c0 -5 -4 -10 -10 -10 -5 0 -10 5 -10 10 0 6 5 10
10 10 6 0 10 -4 10 -10z m75 -10 c-3 -5 -1 -11 5 -15 6 -4 8 -11 4 -16 -3 -5
-10 -6 -16 -3 -8 5 -9 1 -4 -12 6 -15 5 -16 -5 -7 -9 9 -9 15 0 27 9 11 9 15
0 18 -7 2 -9 10 -5 16 4 7 12 10 17 6 5 -3 7 -9 4 -14z m-95 -20 c0 -5 -4 -10
-10 -10 -5 0 -10 5 -10 10 0 6 5 10 10 10 6 0 10 -4 10 -10z m88 -59 c9 -6 12
-11 5 -11 -6 0 -18 7 -26 15 -8 8 -18 11 -21 7 -4 -3 -4 2 0 12 6 16 8 16 16
2 5 -8 16 -20 26 -25z m-33 -10 c3 -5 2 -12 -3 -15 -5 -3 -9 1 -9 9 0 17 3 19
12 6z m-1865 -5 c0 -2 -8 -10 -17 -17 -16 -13 -17 -12 -4 4 13 16 21 21 21 13z
m50 -26 c0 -5 -5 -10 -11 -10 -5 0 -7 5 -4 10 3 6 8 10 11 10 2 0 4 -4 4 -10z
m1851 -13 c-5 -5 -7 -17 -4 -26 4 -9 3 -13 -1 -10 -14 13 -14 46 0 46 9 0 11
-4 5 -10z m-1935 -17 c0 -12 -4 -16 -9 -11 -5 5 -6 14 -3 20 10 15 12 14 12
-9z m1904 14 c0 -8 -19 -13 -24 -6 -3 5 1 9 9 9 8 0 15 -2 15 -3z m20 -64 c0
-5 -5 -10 -11 -10 -5 0 -7 5 -4 10 3 6 8 10 11 10 2 0 4 -4 4 -10z"/>
<path d="M2653 488 c-12 -15 -13 -49 -2 -42 5 2 6 11 3 19 -4 10 0 13 16 10
18 -3 20 -2 10 10 -15 18 -15 18 -27 3z"/>
<path d="M2369 2543 c-13 -16 -12 -17 4 -4 9 7 17 15 17 17 0 8 -8 3 -21 -13z"/>
<path d="M2726 548 c3 -5 10 -6 15 -3 13 9 11 12 -6 12 -8 0 -12 -4 -9 -9z"/>
<path d="M2796 467 c-14 -11 -16 -18 -9 -32 7 -12 13 -14 17 -6 4 6 2 11 -3
11 -6 0 -11 5 -11 11 0 8 4 9 13 0 8 -6 16 -8 19 -5 3 3 5 -3 5 -13 -2 -12 5
-18 19 -18 12 -1 29 -7 38 -14 12 -10 20 -11 27 -4 11 11 -19 34 -51 39 -7 2
-21 12 -30 24 -13 18 -18 19 -34 7z m95 -54 c13 -16 12 -17 -3 -4 -17 13 -22
21 -14 21 2 0 10 -8 17 -17z"/>
<path d="M2740 451 c0 -6 4 -13 10 -16 6 -3 7 1 4 9 -7 18 -14 21 -14 7z"/>
<path d="M3035 251 c-3 -5 -2 -12 3 -15 5 -3 9 1 9 9 0 17 -3 19 -12 6z"/>
<path d="M2955 71 c-3 -5 -2 -12 3 -15 5 -3 9 1 9 9 0 17 -3 19 -12 6z"/>
</g>
</svg>
